<?xml version="1.0" encoding="utf-8"?>
<!-- Generator: Adobe Illustrator 23.0.6, SVG Export Plug-In . SVG Version: 6.00 Build 0)  -->
<svg version="1.1" id="Layer_1" xmlns="http://www.w3.org/2000/svg" xmlns:xlink="http://www.w3.org/1999/xlink" x="0px" y="0px"
	 viewBox="0 0 595.28 841.89" style="enable-background:new 0 0 595.28 841.89;" xml:space="preserve">
<style type="text/css">
	.st0{fill:#999965;stroke:#000000;stroke-miterlimit:10;}
	.st1{fill:#DCDA21;stroke:#000000;stroke-miterlimit:10;}
	.st2{fill:#29469D;stroke:#000000;stroke-miterlimit:10;}
	.st3{fill:#FFFFFF;stroke:#000000;stroke-miterlimit:10;}
	.st4{fill:#8BC865;stroke:#000000;stroke-miterlimit:10;}
	.st5{fill:#CF2027;stroke:#000000;stroke-miterlimit:10;}
	.st6{fill:none;}
	.st7{fill:#C9B019;stroke:#000000;stroke-miterlimit:10;}
	.st8{fill:#E8CA1C;stroke:#000000;stroke-miterlimit:10;}
	.st9{fill:#DAE2D6;stroke:#D0AB2B;stroke-miterlimit:10;}
	.st10{font-family:'MyriadPro-Regular';}
	.st11{font-size:61.568px;}
	.st12{fill:#DAE2D6;stroke:#00844A;stroke-miterlimit:10;}
	.st13{font-size:47.4085px;}
</style>
<path class="st0" d="M144.42,391.81h321.89c3.98,0,7.2-3.23,7.2-7.2V193.53c0-3.98-3.23-7.2-7.2-7.2H144.42
	c-3.98,0-7.2,3.23-7.2,7.2V384.6C137.22,388.58,140.44,391.81,144.42,391.81z"/>
<rect x="441" y="216.47" class="st0" width="21.56" height="164.38"/>
<path class="st1" d="M452.33,373.2h-12.36c-2.89,0-5.23-2.34-5.23-5.23V230.83c0-2.89,2.34-5.23,5.23-5.23h12.36
	c2.89,0,5.23,2.34,5.23,5.23v137.14C457.56,370.86,455.22,373.2,452.33,373.2z"/>
<rect x="419.44" y="216.47" class="st0" width="21.56" height="164.38"/>
<path class="st2" d="M429.5,373.2h-12.34c-2.89,0-5.24-2.35-5.24-5.24V230.84c0-2.89,2.35-5.24,5.24-5.24h12.34
	c2.89,0,5.24,2.35,5.24,5.24v137.12C434.74,370.85,432.39,373.2,429.5,373.2z"/>
<path class="st3" d="M241.92,330"/>
<path class="st3" d="M225.36,330"/>
<rect x="182.57" y="178.81" transform="matrix(0.9493 -0.3144 0.3144 0.9493 -58.5751 105.2519)" class="st4" width="228.96" height="110.86"/>
<rect x="397.88" y="216.47" class="st0" width="21.56" height="164.38"/>
<path class="st5" d="M406.66,373.2h-9.72c-2.9,0-5.26-2.35-5.26-5.26V230.86c0-2.9,2.35-5.26,5.26-5.26h9.72
	c2.9,0,5.26,2.35,5.26,5.26v137.08C411.92,370.85,409.56,373.2,406.66,373.2z"/>
<polygon class="st6" points="135,141.36 137.16,141.36 137.16,141.36 135,141.36 "/>
<circle class="st7" cx="253.68" cy="191.64" r="33.96"/>
<circle class="st8" cx="256.03" cy="189.3" r="31.67"/>
<text transform="matrix(1.0808 0 0 1 240.3628 213.2361)" class="st9 st10 st11">$</text>
<text transform="matrix(1.1747 0 0 1 287.1906 213.2361)" class="st12 st10 st13">AVE</text>
<rect x="150.23" y="216.47" class="st0" width="247.64" height="164.38"/>
</svg>
